<svg width="18" height="18" viewBox="0 0 18 18" fill="none" xmlns="http://www.w3.org/2000/svg">
<g clip-path="url(#clip0_531_1438)">
<path d="M17.8389 8.57119L14.5086 5.23132C14.2882 5.01029 13.9305 5.01029 13.7101 5.23132C13.4896 5.45233 13.4896 5.81112 13.7101 6.03212L16.1052 8.43395H1.89428L4.28937 6.03212C4.50982 5.81112 4.50982 5.45233 4.28937 5.23132C4.06893 5.01029 3.71125 5.01029 3.49081 5.23132L0.160508 8.57119C0.0429779 8.68928 -0.00708111 8.84563 0.000801269 8.99972C-0.00708111 9.15437 0.0429779 9.31069 0.160508 9.42881L3.49137 12.7687C3.71181 12.9897 4.06949 12.9897 4.28993 12.7687C4.51037 12.5477 4.51037 12.1889 4.28993 11.9679L1.89428 9.56604H16.1051L13.7101 11.9679C13.4896 12.1889 13.4896 12.5477 13.7101 12.7687C13.9305 12.9897 14.2881 12.9897 14.5086 12.7687L17.8395 9.42881C17.957 9.31072 18.0071 9.15437 17.9992 8.99972C18.0065 8.8456 17.9565 8.68928 17.8389 8.57119Z" fill="white"/>
</g>
<defs>
<clipPath id="clip0_531_1438">
<rect width="18" height="18" fill="white"/>
</clipPath>
</defs>
</svg>
