<svg width="25" height="25" viewBox="0 0 25 25" fill="none" xmlns="http://www.w3.org/2000/svg">
<g clip-path="url(#clip0_465_791)">
<path d="M1.78573 3.92864C1.08083 3.92864 0.5 4.50946 0.5 5.21432V23.2143C0.5 23.9192 1.08083 24.5001 1.78573 24.5001H2.64289C3.34775 24.5001 3.92862 23.9192 3.92862 23.2143V5.21432C3.92862 4.50946 3.3478 3.92859 2.64289 3.92859L1.78573 3.92864Z" fill="#0095FF"/>
<path d="M22.357 12.5C21.6522 12.5 21.0713 13.0808 21.0713 13.7857V23.2143C21.0713 23.9192 21.6521 24.5 22.357 24.5H23.2142C23.919 24.5 24.4999 23.9192 24.4999 23.2143V13.7857C24.4999 13.0808 23.919 12.5 23.2141 12.5H22.357Z" fill="#0095FF"/>
<path d="M4.78613 15.9286V21.9286H20.2147V15.9286H4.78613Z" fill="#0095FF"/>
<path d="M4.78613 12.5V15.0714H10.7861V14.2143C10.7861 13.272 10.0141 12.5 9.07187 12.5H4.78613Z" fill="#0095FF"/>
<path d="M13.7853 0.5C10.7134 0.5 8.21387 2.99952 8.21387 6.07142C8.21387 9.14333 10.7134 11.6428 13.7853 11.6428C16.8572 11.6428 19.3567 9.14333 19.3567 6.07142C19.3567 2.99952 16.8572 0.5 13.7853 0.5ZM12.9307 3.1423H14.6399C14.8421 3.1423 15.006 3.30622 15.006 3.50844V4.8507H16.3483C16.5505 4.8507 16.7144 5.01463 16.7144 5.21684V6.926C16.7144 7.12822 16.5505 7.29214 16.3483 7.29214H15.006V8.63441C15.006 8.83663 14.842 9.00055 14.6398 9.00055H12.9307C12.7284 9.00055 12.5645 8.83663 12.5645 8.63441V7.29214H11.2223C11.02 7.29214 10.8561 7.12822 10.8561 6.926V5.21684C10.8561 5.01463 11.02 4.8507 11.2223 4.8507H12.5645V3.50844C12.5646 3.30622 12.7285 3.14234 12.9307 3.1423Z" fill="#0095FF"/>
</g>
<defs>
<clipPath id="clip0_465_791">
<rect width="24" height="24" fill="white" transform="translate(0.5 0.5)"/>
</clipPath>
</defs>
</svg>
