<svg width="24" height="24" viewBox="0 0 24 24" fill="none" xmlns="http://www.w3.org/2000/svg">
<path d="M5.66311 11.3071C5.3482 11.308 5.03997 11.4004 4.77408 11.5735C4.5082 11.7466 4.29552 11.9934 4.16067 12.2853C4.02581 12.5772 3.97427 12.9024 4.01203 13.2231C4.04979 13.5438 4.17529 13.847 4.37401 14.0976L8.61041 19.4212C8.76145 19.6136 8.95507 19.7662 9.17518 19.8665C9.39529 19.9667 9.63553 20.0116 9.87595 19.9975C10.3902 19.9691 10.8544 19.687 11.1504 19.223L19.9504 4.68453C19.9519 4.68212 19.9534 4.6797 19.9549 4.67733C20.0375 4.54727 20.0107 4.28954 19.8403 4.12763C19.7935 4.08317 19.7383 4.04901 19.6781 4.02726C19.6179 4.00551 19.5541 3.99662 19.4904 4.00115C19.4268 4.00568 19.3647 4.02353 19.308 4.05359C19.2513 4.08366 19.2013 4.12531 19.1609 4.17598C19.1577 4.17996 19.1545 4.18388 19.1511 4.18775L10.2762 14.4741C10.2424 14.5132 10.2014 14.5451 10.1555 14.5678C10.1096 14.5906 10.0598 14.6038 10.0089 14.6066C9.95802 14.6094 9.9071 14.6018 9.8591 14.5843C9.8111 14.5668 9.76697 14.5396 9.72928 14.5044L6.78384 11.7548C6.47793 11.4672 6.0781 11.3075 5.66311 11.3071Z" fill="white"/>
</svg>
