<svg width="24" height="24" viewBox="0 0 24 24" fill="none" xmlns="http://www.w3.org/2000/svg">
<path d="M19.5656 17.4683C19.8438 17.7465 20 18.1237 20 18.517C20 18.9103 19.8438 19.2875 19.5656 19.5656C19.2875 19.8438 18.9103 20 18.517 20C18.1237 20 17.7465 19.8438 17.4683 19.5656L12.2397 14.3369C12.1761 14.2733 12.0899 14.2376 12 14.2376C11.9101 14.2376 11.8239 14.2733 11.7603 14.3369L6.53167 19.5656C6.25312 19.8417 5.87656 19.9962 5.48437 19.9954C5.09219 19.9945 4.71631 19.8383 4.43899 19.561C4.16168 19.2837 4.00549 18.9078 4.00462 18.5156C4.00374 18.1234 4.15825 17.7469 4.43433 17.4683L9.66305 12.2398C9.69453 12.2083 9.7195 12.171 9.73654 12.1298C9.75358 12.0887 9.76235 12.0446 9.76235 12.0001C9.76235 11.9556 9.75358 11.9115 9.73654 11.8704C9.7195 11.8293 9.69453 11.7919 9.66305 11.7604L4.43437 6.53167C4.15625 6.25355 4 5.87634 4 5.48302C4 5.08969 4.15625 4.71248 4.43437 4.43437C4.71248 4.15625 5.08969 4 5.48302 4C5.87634 4 6.25355 4.15625 6.53167 4.43437L11.7603 9.66321C11.8239 9.72676 11.9101 9.76245 12 9.76245C12.0899 9.76245 12.1761 9.72676 12.2397 9.66321L17.4683 4.43437C17.7465 4.15625 18.1237 4 18.517 4C18.9103 4 19.2875 4.15625 19.5656 4.43437C19.8438 4.71248 20 5.0897 20 5.48302C20 5.87634 19.8438 6.25355 19.5656 6.53167L14.3369 11.7604C14.3054 11.7919 14.2805 11.8293 14.2634 11.8704C14.2464 11.9115 14.2376 11.9556 14.2376 12.0001C14.2376 12.0446 14.2464 12.0887 14.2634 12.1298C14.2805 12.171 14.3054 12.2083 14.3369 12.2398L19.5656 17.4683Z" fill="white"/>
</svg>
