<svg width="24" height="24" viewBox="0 0 24 24" fill="none" xmlns="http://www.w3.org/2000/svg">
<path d="M11.9999 0C9.41389 0 7.31055 2.10392 7.31055 4.68995V7.11969C7.31055 9.70591 9.41389 11.8098 11.9999 11.8098C14.5861 11.8098 16.6893 9.70591 16.6893 7.11969V4.68995C16.6893 2.10392 14.5861 0 11.9999 0Z" fill="white"/>
<path d="M22.3412 17.9214C20.8396 15.3624 18.4394 13.4653 15.5829 12.5794C15.5166 12.5588 15.445 12.5763 15.3957 12.6251C14.0669 13.9353 12.4157 14.9575 12.0029 15.2044C11.5622 14.9227 9.70619 13.7129 8.60277 12.6251C8.55362 12.5763 8.48143 12.5588 8.41557 12.5794C5.55864 13.4655 3.15866 15.3626 1.65761 17.9216C1.62324 17.9801 1.62324 18.0529 1.65761 18.1114C3.78918 21.7437 7.75183 24 11.9992 24C16.2468 24 20.2097 21.7437 22.3412 18.1114C22.3758 18.0527 22.3758 17.9799 22.3412 17.9214ZM18.3772 19.3203C18.3772 19.4237 18.2787 19.5029 18.1754 19.5029H16.9054C16.8019 19.5029 16.689 19.5917 16.689 19.6954V21.0089C16.689 21.1122 16.6337 21.1911 16.5302 21.1911H15.3895C15.286 21.1911 15.1885 21.1122 15.1885 21.0089V19.6954C15.1881 19.5919 15.1175 19.5029 15.014 19.5029H13.6892C13.5857 19.5029 13.5001 19.4236 13.5001 19.3203V18.1894C13.5001 18.0859 13.5857 18.0024 13.6892 18.0024H15.014C15.1175 18.0024 15.1881 17.9179 15.1881 17.8142V16.4992C15.1881 16.3957 15.2857 16.3141 15.3892 16.3141H16.5175C16.6208 16.3141 16.6888 16.3957 16.6888 16.4992V17.8181C16.6888 17.9217 16.789 18.0022 16.8927 18.0022H18.1754C18.2787 18.0022 18.3772 18.0897 18.3772 18.1932V19.3203Z" fill="white"/>
</svg>
