<svg width="25" height="25" viewBox="0 0 25 25" fill="none" xmlns="http://www.w3.org/2000/svg">
<g clip-path="url(#clip0_465_769)">
<path d="M21.3078 0.5H3.69282C3.16407 0.5 2.73535 0.928672 2.73535 1.45747V23.5426C2.73535 24.0713 3.16402 24.5 3.69282 24.5H16.3939C16.6479 24.5 16.8914 24.3992 17.0709 24.2196L21.9848 19.3057C22.1643 19.1262 22.2652 18.8827 22.2652 18.6287V1.45747C22.2653 0.928672 21.8366 0.5 21.3078 0.5ZM11.9523 18.5092H10.5178V19.9437C10.5178 20.4725 10.0891 20.9012 9.56035 20.9012C9.03156 20.9012 8.60288 20.4725 8.60288 19.9437V18.5092H7.16832C6.63957 18.5092 6.21085 18.0805 6.21085 17.5517C6.21085 17.0229 6.63952 16.5942 7.16832 16.5942H8.60288V15.1597C8.60288 14.6309 9.03156 14.2022 9.56035 14.2022C10.0891 14.2022 10.5178 14.6309 10.5178 15.1597V16.5942H11.9523C12.4811 16.5942 12.9098 17.0229 12.9098 17.5517C12.9098 18.0805 12.4811 18.5092 11.9523 18.5092ZM12.1173 12.179H7.16841C6.63966 12.179 6.21095 11.7504 6.21095 11.2216C6.21095 10.6928 6.63962 10.2641 7.16841 10.2641H12.1173C12.6461 10.2641 13.0748 10.6928 13.0748 11.2216C13.0748 11.7504 12.6461 12.179 12.1173 12.179ZM17.8322 9.24073H7.16841C6.63966 9.24073 6.21095 8.81206 6.21095 8.28331C6.21095 7.75456 6.63962 7.32584 7.16841 7.32584H17.8322C18.3609 7.32584 18.7897 7.75452 18.7897 8.28331C18.7897 8.81211 18.3609 9.24073 17.8322 9.24073ZM17.8322 6.30233H7.16841C6.63966 6.30233 6.21095 5.87366 6.21095 5.34486C6.21095 4.81606 6.63962 4.38739 7.16841 4.38739H17.8322C18.3609 4.38739 18.7897 4.81606 18.7897 5.34486C18.7897 5.87366 18.3609 6.30233 17.8322 6.30233Z" fill="#0095FF"/>
</g>
<defs>
<clipPath id="clip0_465_769">
<rect width="24" height="24" fill="white" transform="translate(0.5 0.5)"/>
</clipPath>
</defs>
</svg>
