<svg width="18" height="16" viewBox="0 0 18 16" fill="none" xmlns="http://www.w3.org/2000/svg">
<path d="M17.1858 4.98425H3.41323C3.05717 4.98425 2.75617 5.2359 2.64237 5.6012L0.0434907 14.8473C-0.114351 15.4155 0.271077 16 0.814346 16H14.587C14.943 16 15.244 15.7483 15.3578 15.383L17.9714 6.14914C18.1109 5.56873 17.7254 4.98425 17.1858 4.98425ZM12.5754 11.4865H9.89209V14.4536H8.09342V11.4865H5.41011V9.4977H8.09342V6.53068H9.89209V9.4977H12.5754V11.4865Z" fill="white"/>
<path d="M1.9565 5.36581C2.15472 4.65551 2.74204 4.18062 3.41379 4.18062H15.4465V3.12126C15.4465 2.63014 15.0904 2.23643 14.6463 2.23643H8.09398C7.53603 2.23643 7.08086 1.73313 7.08086 1.11619C7.08086 0.499239 6.62201 0 6.06773 0H0.800221C0.359732 0 0 0.409944 0 0.897007V12.2618L1.9565 5.36581Z" fill="white"/>
</svg>
