<svg width="24" height="24" viewBox="0 0 24 24" fill="none" xmlns="http://www.w3.org/2000/svg">
<path d="M10.4528 7.38013C11.9472 8.6269 14.3766 7.45863 14.3378 5.49004C14.3373 4.85175 14.0836 4.23973 13.6322 3.78839C13.1809 3.33705 12.5688 3.08328 11.9306 3.08281C9.65752 3.06992 8.65698 6.02203 10.4528 7.38013Z" fill="white"/>
<path d="M8.02672 11.1875C8.17054 11.4164 8.3702 11.6051 8.60694 11.7357C8.84367 11.8663 9.10972 11.9346 9.3801 11.9341H14.4824C14.7511 11.9316 15.0149 11.8618 15.2497 11.7312C15.4845 11.6006 15.6829 11.4132 15.8268 11.1862C15.9706 10.9593 16.0553 10.6999 16.0732 10.4318C16.0911 10.1637 16.0415 9.89535 15.9291 9.6513C15.5488 8.85356 14.9379 8.18835 14.1752 7.74182C13.5787 8.33528 12.7727 8.67049 11.9313 8.67518C11.0892 8.66779 10.2831 8.33306 9.68342 7.74182C8.61889 8.40414 7.21844 9.85744 8.02672 11.1875Z" fill="white"/>
<path d="M16.2286 6.57125C17.7247 7.81766 20.1667 6.66143 20.1253 4.68116C20.1254 4.27332 20.0218 3.87214 19.8243 3.5153C19.6268 3.15846 19.3419 2.85766 18.9963 2.64113C18.6506 2.42461 18.2557 2.29946 17.8484 2.27744C17.4411 2.25542 17.035 2.33724 16.668 2.51523C16.3011 2.69322 15.9853 2.96155 15.7505 3.29501C15.5157 3.62847 15.3695 4.01613 15.3255 4.42161C15.2816 4.82708 15.3414 5.23707 15.4994 5.61309C15.6574 5.9891 15.9083 6.3188 16.2286 6.57125Z" fill="white"/>
<path d="M16.9827 9.14962C17.1624 9.52594 17.2542 9.9382 17.2511 10.3552C17.2498 10.608 17.2131 10.8593 17.1422 11.1019C17.1863 11.121 17.2341 11.1303 17.2822 11.1291H20.265C20.5354 11.1296 20.8015 11.0613 21.0382 10.9307C21.2749 10.8 21.4746 10.6114 21.6184 10.3824C22.4282 9.05248 21.0311 7.59562 19.9656 6.93677C18.705 8.22889 16.6818 8.0894 15.4311 6.95224C15.0779 7.10741 15.7256 7.35082 15.8782 7.59406C16.3352 8.04348 16.7091 8.57009 16.9827 9.14962Z" fill="white"/>
<path d="M4.662 6.57515C4.96397 6.81201 5.31821 6.97324 5.69516 7.04539C6.07211 7.11753 6.46085 7.0985 6.82895 6.98987C7.19705 6.88125 7.53384 6.68618 7.81124 6.42095C8.08863 6.15571 8.29858 5.82799 8.42358 5.46513C8.54858 5.10226 8.58501 4.71477 8.52982 4.33496C8.47463 3.95516 8.32943 3.59405 8.10632 3.28177C7.88322 2.96949 7.58868 2.71508 7.24727 2.53976C6.90586 2.36444 6.52748 2.2733 6.14369 2.27393C5.6468 2.28212 5.16448 2.44308 4.76227 2.73496C4.36007 3.02684 4.05748 3.43547 3.89562 3.90533C3.73376 4.37518 3.72049 4.88348 3.8576 5.36114C3.99472 5.83881 4.27557 6.26268 4.662 6.57515Z" fill="white"/>
<path d="M3.59698 11.1292H6.57983C6.62896 11.128 6.67756 11.1188 6.72371 11.1019C6.64935 10.86 6.61134 10.6083 6.61094 10.3552C6.6001 9.29511 7.26784 8.32665 7.98762 7.59405C8.14366 7.34778 8.78158 7.10784 8.43101 6.95242C7.1819 8.09817 5.13435 8.22144 3.89643 6.93286C2.83114 7.59663 1.43396 9.05127 2.24357 10.3825C2.3874 10.6114 2.58706 10.8001 2.8238 10.9307C3.06054 11.0613 3.3266 11.1296 3.59698 11.1292Z" fill="white"/>
<path d="M22.4437 16.2258C22.364 16.0112 22.206 15.8348 22.0015 15.7322C21.7969 15.6295 21.561 15.6082 21.3414 15.6726L15.4964 17.4013C15.3593 17.8436 15.0733 18.2246 14.6869 18.4797C14.3005 18.7348 13.8377 18.8482 13.3772 18.8005L10.1638 18.4792C10.1104 18.4742 10.0586 18.4586 10.0112 18.4335C9.96384 18.4083 9.92193 18.374 9.88787 18.3326C9.85381 18.2912 9.82827 18.2435 9.81273 18.1921C9.7972 18.1408 9.79196 18.0869 9.79732 18.0336C9.80268 17.9802 9.81855 17.9284 9.84399 17.8812C9.86944 17.834 9.90396 17.7923 9.94559 17.7585C9.98721 17.7247 10.0351 17.6995 10.0865 17.6842C10.1379 17.669 10.1919 17.6641 10.2452 17.6698L13.4585 17.9911C13.7405 18.0165 14.0223 17.9408 14.2537 17.7777C14.4851 17.6146 14.651 17.3746 14.7218 17.1005C14.7927 16.8264 14.7638 16.536 14.6405 16.2812C14.5171 16.0264 14.3072 15.8237 14.0483 15.7092L9.38287 13.7121C8.91268 13.5718 8.41886 13.5287 7.93148 13.5853C7.44409 13.642 6.97332 13.7972 6.54783 14.0416L1.5 16.958L3.49717 20.4194L11.7461 21.6722C12.7282 21.8227 13.7328 21.656 14.6137 21.1963L22.0166 17.3403C22.2106 17.2377 22.3608 17.0682 22.4394 16.8632C22.5179 16.6583 22.5194 16.4318 22.4437 16.2258Z" fill="white"/>
</svg>
