<svg width="24" height="24" viewBox="0 0 24 24" fill="none" xmlns="http://www.w3.org/2000/svg">
<path d="M12 3C7.03746 3 3 7.03746 3 12C3 16.9625 7.03746 21 12 21C16.9625 21 21 16.9625 21 12C21 7.03746 16.9625 3 12 3ZM12.5854 17.3399C12.1578 17.4112 11.307 17.5892 10.875 17.625C10.5093 17.6553 10.1642 17.4459 9.9538 17.1454C9.74288 16.845 9.69233 16.4604 9.81756 16.1155L11.5188 11.4375H9.74998C9.74847 10.4628 10.4796 9.74603 11.4147 9.47097C11.861 9.33967 12.6924 9.15999 13.125 9.18753C13.3841 9.20401 13.8358 9.36659 14.0462 9.6671C14.2571 9.96757 14.3076 10.3521 14.1824 10.6971L12.4812 15.375H14.2494C14.2498 16.3486 13.5459 17.1798 12.5854 17.3399ZM13.125 8.62501C12.5036 8.62501 12 8.12127 12 7.5C12 6.87866 12.5036 6.37499 13.125 6.37499C13.7463 6.37499 14.25 6.87866 14.25 7.5C14.25 8.1213 13.7463 8.62501 13.125 8.62501Z" fill="white"/>
</svg>
