<svg width="177" height="45" viewBox="0 0 177 45" fill="none" xmlns="http://www.w3.org/2000/svg">
<g clip-path="url(#clip0_594_33)">
<path fill-rule="evenodd" clip-rule="evenodd" d="M22.535 0H49.577V45H22.535C10.1403 45 0 34.8753 0 22.5002V22.4998C0 10.1247 10.1403 0 22.535 0Z" fill="#3EEBB6"/>
<path fill-rule="evenodd" clip-rule="evenodd" d="M76.6182 0H49.5762V45H76.6182C89.0129 45 99.1532 34.8753 99.1532 22.5002V22.4998C99.1532 10.1247 89.0129 0 76.6182 0Z" fill="#0095FF"/>
<path fill-rule="evenodd" clip-rule="evenodd" d="M19.5312 10.5H24.0383H39.0616V15H24.0383V19.5H33.0523V24H24.0383V34.5H19.5312V24V19.5V15V10.5Z" fill="white"/>
<path d="M60.0938 34.4999L60.2128 10.5088H65.1367L72.2226 21.3933L79.3087 10.5088H84.2415V34.5088H79.7343V18.0859L72.2226 29.6244L64.6651 18.0153L64.5832 34.5177L60.0938 34.4999Z" fill="white"/>
<path d="M117.49 8.54284H112.082V11.7441H117.335V14.2898H112.082V19.4969H109.416V5.99709H117.49V8.54284ZM126.539 9.85426H129.031V19.4969H126.539V18.359C125.792 19.2975 124.743 19.767 123.391 19.767C122.103 19.767 120.999 19.2751 120.078 18.2915C119.157 17.308 118.697 16.1026 118.697 14.6755C118.697 13.2483 119.157 12.0431 120.078 11.0595C120.999 10.076 122.103 9.58416 123.391 9.58416C124.743 9.58416 125.792 10.0534 126.539 10.9921V9.85426ZM121.942 16.6331C122.444 17.1408 123.082 17.3948 123.854 17.3948C124.627 17.3948 125.268 17.1408 125.776 16.6331C126.285 16.1252 126.539 15.4727 126.539 14.6755C126.539 13.8785 126.285 13.2259 125.776 12.718C125.268 12.2102 124.627 11.9563 123.854 11.9563C123.082 11.9563 122.444 12.2102 121.942 12.718C121.44 13.2259 121.189 13.8785 121.189 14.6755C121.189 15.4727 121.44 16.1252 121.942 16.6331ZM141.847 9.58416C142.954 9.58416 143.839 9.94422 144.502 10.6641C145.166 11.384 145.497 12.3485 145.497 13.5571V19.4969H143.005V13.7304C143.005 13.152 142.864 12.702 142.581 12.3806C142.297 12.0592 141.898 11.8985 141.383 11.8985C140.816 11.8985 140.375 12.0849 140.06 12.4577C139.744 12.8306 139.587 13.3706 139.587 14.0776V19.4969H137.095V13.7304C137.095 13.152 136.953 12.702 136.67 12.3806C136.387 12.0592 135.987 11.8985 135.472 11.8985C134.919 11.8985 134.478 12.0849 134.149 12.4577C133.821 12.8306 133.657 13.3706 133.657 14.0776V19.4969H131.165V9.85426H133.657V10.8764C134.236 10.015 135.131 9.58416 136.342 9.58416C137.526 9.58416 138.402 10.0471 138.969 10.9727C139.612 10.0471 140.572 9.58416 141.847 9.58416ZM148.732 8.697C148.32 8.697 147.963 8.54601 147.66 8.24381C147.358 7.94162 147.206 7.58494 147.206 7.17356C147.206 6.76197 147.358 6.40213 147.66 6.09359C147.963 5.78485 148.32 5.63069 148.732 5.63069C149.157 5.63069 149.521 5.78485 149.824 6.09359C150.126 6.40213 150.278 6.76197 150.278 7.17356C150.278 7.58494 150.126 7.94162 149.824 8.24381C149.521 8.54601 149.157 8.697 148.732 8.697ZM147.496 19.4969V9.85426H149.988V19.4969H147.496ZM152.141 19.4969V5.41846H154.633V19.4969H152.141ZM163.084 9.85426H165.749L162.234 19.4969C161.732 20.8854 161.065 21.8914 160.235 22.515C159.404 23.1386 158.371 23.4182 157.135 23.354V21.0397C157.804 21.0526 158.335 20.9111 158.728 20.6155C159.121 20.3196 159.433 19.8441 159.665 19.1883L155.705 9.85426H158.429L160.94 16.3341L163.084 9.85426ZM122.647 25.4899V38.9897H120.001V30.234L116.196 36.5018H115.887L112.082 30.2535V38.9897H109.416V25.4899H112.159L116.041 31.8734L119.904 25.4899H122.647ZM127.022 35.1904C127.357 36.399 128.264 37.0033 129.745 37.0033C130.698 37.0033 131.419 36.6819 131.909 36.0391L133.918 37.1962C132.965 38.5718 131.561 39.2598 129.707 39.2598C128.11 39.2598 126.829 38.7775 125.863 37.8132C124.897 36.849 124.414 35.6341 124.414 34.1683C124.414 32.7156 124.891 31.5036 125.844 30.5331C126.797 29.5623 128.02 29.077 129.514 29.077C130.93 29.077 132.099 29.5654 133.019 30.5428C133.94 31.5199 134.4 32.7283 134.4 34.1683C134.4 34.4897 134.368 34.8305 134.304 35.1904H127.022ZM126.983 33.2619H131.909C131.767 32.6062 131.474 32.1177 131.03 31.7963C130.586 31.4747 130.08 31.314 129.514 31.314C128.844 31.314 128.29 31.4844 127.852 31.8253C127.415 32.1659 127.125 32.6448 126.983 33.2619ZM143.256 25.4899H145.748V38.9897H143.256V37.8519C142.522 38.7903 141.479 39.2598 140.127 39.2598C138.827 39.2598 137.716 38.768 136.795 37.7843C135.875 36.8008 135.414 35.5954 135.414 34.1683C135.414 32.7411 135.875 31.5359 136.795 30.5523C137.716 29.5688 138.827 29.077 140.127 29.077C141.479 29.077 142.522 29.5462 143.256 30.4849V25.4899ZM138.669 36.1259C139.178 36.6336 139.818 36.8876 140.591 36.8876C141.363 36.8876 142.001 36.6336 142.503 36.1259C143.005 35.618 143.256 34.9655 143.256 34.1683C143.256 33.3713 143.005 32.7188 142.503 32.2109C142.001 31.703 141.363 31.4491 140.591 31.4491C139.818 31.4491 139.178 31.703 138.669 32.2109C138.16 32.7188 137.906 33.3713 137.906 34.1683C137.906 34.9655 138.16 35.618 138.669 36.1259ZM149.138 28.1898C148.726 28.1898 148.368 28.0388 148.066 27.7366C147.763 27.4344 147.612 27.0778 147.612 26.6664C147.612 26.2548 147.763 25.8949 148.066 25.5864C148.368 25.2777 148.726 25.1235 149.138 25.1235C149.563 25.1235 149.927 25.2777 150.229 25.5864C150.532 25.8949 150.683 26.2548 150.683 26.6664C150.683 27.0778 150.532 27.4344 150.229 27.7366C149.927 28.0388 149.563 28.1898 149.138 28.1898ZM147.902 38.9897V29.3471H150.393V38.9897H147.902ZM157.144 39.2598C155.689 39.2598 154.475 38.7711 153.503 37.794C152.531 36.8169 152.045 35.6083 152.045 34.1683C152.045 32.7283 152.531 31.5199 153.503 30.5428C154.475 29.5654 155.689 29.077 157.144 29.077C158.084 29.077 158.94 29.3019 159.713 29.7519C160.486 30.2019 161.072 30.8063 161.471 31.5649L159.327 32.8184C159.133 32.4197 158.841 32.1049 158.448 31.8734C158.055 31.642 157.614 31.5262 157.125 31.5262C156.378 31.5262 155.76 31.7737 155.27 32.2687C154.781 32.7637 154.536 33.3968 154.536 34.1683C154.536 34.9268 154.781 35.5536 155.27 36.0486C155.76 36.5436 156.378 36.7911 157.125 36.7911C157.627 36.7911 158.074 36.6786 158.467 36.4537C158.86 36.2287 159.153 35.9168 159.346 35.5183L161.509 36.7527C161.084 37.5112 160.486 38.1186 159.713 38.5751C158.94 39.0315 158.084 39.2598 157.144 39.2598ZM169.882 29.3471H172.374V38.9897H169.882V37.8519C169.136 38.7903 168.086 39.2598 166.734 39.2598C165.446 39.2598 164.342 38.768 163.421 37.7843C162.501 36.8008 162.04 35.5954 162.04 34.1683C162.04 32.7411 162.501 31.5359 163.421 30.5523C164.342 29.5688 165.446 29.077 166.734 29.077C168.086 29.077 169.136 29.5462 169.882 30.4849V29.3471ZM165.285 36.1259C165.787 36.6336 166.425 36.8876 167.198 36.8876C167.97 36.8876 168.611 36.6336 169.12 36.1259C169.628 35.618 169.882 34.9655 169.882 34.1683C169.882 33.3713 169.628 32.7188 169.12 32.2109C168.611 31.703 167.97 31.4491 167.198 31.4491C166.425 31.4491 165.787 31.703 165.285 32.2109C164.783 32.7188 164.532 33.3713 164.532 34.1683C164.532 34.9655 164.783 35.618 165.285 36.1259ZM174.508 38.9897V24.9113H177V38.9897H174.508Z" fill="black"/>
</g>
<defs>
<clipPath id="clip0_594_33">
<rect width="177" height="45" fill="white"/>
</clipPath>
</defs>
</svg>
