<svg width="18" height="16" viewBox="0 0 18 16" fill="none" xmlns="http://www.w3.org/2000/svg">
<path fill-rule="evenodd" clip-rule="evenodd" d="M18 4.71796C18 4.1198 17.7572 3.54545 17.326 3.12206C16.894 2.6995 16.308 2.46155 15.6977 2.46155C12.4895 2.46155 5.51051 2.46155 2.30233 2.46155C1.692 2.46155 1.10595 2.6995 0.673954 3.12206C0.242791 3.54545 0 4.1198 0 4.71796V13.7436C0 14.3418 0.242791 14.9161 0.673954 15.3395C1.10595 15.7621 1.692 16 2.30233 16H15.6977C16.308 16 16.894 15.7621 17.326 15.3395C17.7572 14.9161 18 14.3418 18 13.7436V4.71796ZM7.74419 8.00001H6.06977C5.8387 8.00001 5.65116 8.1838 5.65116 8.41027V10.0513C5.65116 10.1604 5.69553 10.2646 5.7734 10.3418C5.85209 10.4181 5.95842 10.4615 6.06977 10.4615H7.74419V12.1026C7.74419 12.329 7.93172 12.5128 8.16279 12.5128H9.83721C9.94856 12.5128 10.0549 12.4693 10.1336 12.393C10.2114 12.3159 10.2558 12.2117 10.2558 12.1026V10.4615H11.9302C12.1613 10.4615 12.3488 10.2778 12.3488 10.0513V8.41027C12.3488 8.30114 12.3045 8.19693 12.2266 8.1198C12.1479 8.0435 12.0416 8.00001 11.9302 8.00001H10.2558V6.35898C10.2558 6.13252 10.0683 5.94873 9.83721 5.94873H8.16279C8.05144 5.94873 7.94512 5.99221 7.86642 6.06852C7.78856 6.14565 7.74419 6.24986 7.74419 6.35898V8.00001Z" fill="white"/>
<path fill-rule="evenodd" clip-rule="evenodd" d="M5.2324 3.69231H12.7673L12.7941 3.68903C12.9146 3.67179 13.3952 3.57169 13.3952 3.06626V2.25641C13.3952 1.65826 13.1524 1.0839 12.7212 0.660513C12.2892 0.237949 11.7032 0 11.0929 0C9.8471 0 8.15259 0 6.90682 0C6.29649 0 5.71045 0.237949 5.27845 0.660513C4.84728 1.0839 4.60449 1.65826 4.60449 2.25641V3.06626L5.2324 3.69231ZM12.1394 2.46154H5.86031V2.25641C5.86031 1.984 5.97082 1.7239 6.16672 1.53108C6.36347 1.33908 6.62886 1.23077 6.90682 1.23077H11.0929C11.3708 1.23077 11.6362 1.33908 11.833 1.53108C12.0289 1.7239 12.1394 1.984 12.1394 2.25641V2.46154Z" fill="white"/>
<path fill-rule="evenodd" clip-rule="evenodd" d="M14.4424 3.28204H15.6982C16.0448 3.28204 16.3261 3.00635 16.3261 2.66665C16.3261 2.32696 16.0448 2.05127 15.6982 2.05127H14.4424C14.0958 2.05127 13.8145 2.32696 13.8145 2.66665C13.8145 3.00635 14.0958 3.28204 14.4424 3.28204Z" fill="white"/>
<path fill-rule="evenodd" clip-rule="evenodd" d="M2.30174 3.28204H3.55755C3.90415 3.28204 4.18546 3.00635 4.18546 2.66665C4.18546 2.32696 3.90415 2.05127 3.55755 2.05127H2.30174C1.95513 2.05127 1.67383 2.32696 1.67383 2.66665C1.67383 3.00635 1.95513 3.28204 2.30174 3.28204Z" fill="white"/>
</svg>
