<svg width="24" height="24" viewBox="0 0 24 24" fill="none" xmlns="http://www.w3.org/2000/svg">
<path fill-rule="evenodd" clip-rule="evenodd" d="M12.6751 5.29033C12.3188 5.29033 12.03 5.00149 12.03 4.64517C12.03 4.28884 12.3188 4.00001 12.6751 4.00001C14.5497 4.00001 16.4242 4.71517 17.8545 6.14546C18.5533 6.8442 19.0825 7.65378 19.4417 8.52107C19.8139 9.41959 20 10.3737 20 11.3248C20 11.6812 19.7111 11.97 19.3548 11.97C18.9985 11.97 18.7097 11.6812 18.7097 11.3248C18.7097 10.5341 18.5572 9.74623 18.2522 9.01C17.9596 8.30349 17.523 7.63852 16.9423 7.05778C15.764 5.87949 14.2196 5.29033 12.6751 5.29033ZM10.5752 13.4248C9.86467 12.7157 9.23496 11.9306 8.69967 11.0842C8.50422 10.7751 8.50628 10.4037 8.70502 10.0968L9.46886 8.91746C9.63183 8.66571 9.66293 8.37849 9.55757 8.09778L8.24367 4.59588C8.03789 4.04746 7.3867 3.83046 6.89306 4.14584C6.28209 4.53623 5.67099 4.92662 5.05999 5.31704C4.22345 5.85155 3.83506 6.81239 4.06551 7.77804C4.77477 10.7502 6.32173 13.4248 8.45983 15.5402C10.5752 17.6783 13.2498 19.2253 16.222 19.9345C17.1876 20.1649 18.1485 19.7766 18.683 18.94C19.0734 18.329 19.4638 17.7179 19.8541 17.1069C20.1696 16.6133 19.9525 15.9621 19.4041 15.7563L15.9022 14.4424C15.6215 14.337 15.3343 14.3681 15.0826 14.5311L13.9032 15.295C13.5963 15.4937 13.2249 15.4958 12.9158 15.3003C12.0694 14.765 11.2843 14.1353 10.5752 13.4248ZM12.6751 10.5179C12.7843 10.5179 12.8905 10.5379 12.9871 10.5779C13.0778 10.6155 13.1657 10.6741 13.2458 10.7542C13.3259 10.8343 13.3846 10.9223 13.4221 11.0129C13.4621 11.1095 13.4821 11.2157 13.4821 11.3248C13.4821 11.6812 13.771 11.97 14.1273 11.97C14.4836 11.97 14.7724 11.6812 14.7724 11.3248C14.7724 11.0553 14.7188 10.7828 14.6116 10.524C14.5075 10.2726 14.3562 10.0399 14.1581 9.84188C13.9601 9.64381 13.7275 9.49252 13.476 9.38836C13.2171 9.28117 12.9447 9.22755 12.6751 9.22755C12.3188 9.22755 12.03 9.51639 12.03 9.87271C12.03 10.229 12.3189 10.5179 12.6751 10.5179ZM12.6751 7.90162C13.1211 7.90162 13.5681 7.98868 13.9885 8.16284C14.3871 8.32794 14.7636 8.57555 15.094 8.90601C15.4244 9.23642 15.6721 9.61291 15.8372 10.0115C16.0113 10.4319 16.0984 10.8789 16.0984 11.3248C16.0984 11.6797 16.3861 11.9675 16.741 11.9675C17.096 11.9675 17.3837 11.6798 17.3837 11.3248C17.3837 10.7105 17.2647 10.0972 17.0267 9.52259C16.795 8.9632 16.4547 8.4421 16.0063 7.99371C15.558 7.5453 15.0369 7.20504 14.4775 6.97336C13.9029 6.73536 13.2895 6.61636 12.6752 6.61636C12.3203 6.61636 12.0325 6.9041 12.0325 7.25901C12.0325 7.61391 12.3202 7.90162 12.6751 7.90162Z" fill="white"/>
</svg>
