<svg width="25" height="25" viewBox="0 0 25 25" fill="none" xmlns="http://www.w3.org/2000/svg">
<g clip-path="url(#clip0_465_778)">
<path d="M6.64062 5.1875H17.4219C17.8102 5.1875 18.125 4.87274 18.125 4.48438C18.125 4.09601 17.8102 3.78125 17.4219 3.78125V1.20312C17.4219 0.814758 17.1071 0.5 16.7188 0.5H7.34375C6.95538 0.5 6.64062 0.814758 6.64062 1.20312V3.78125C6.25226 3.78125 5.9375 4.09601 5.9375 4.48438C5.9375 4.87274 6.25226 5.1875 6.64062 5.1875Z" fill="#0095FF"/>
<path d="M19.5312 15.5938C17.0758 15.5938 15.0781 17.5914 15.0781 20.0469C15.0781 21.0214 15.3931 21.9237 15.9261 22.6576L22.142 16.4417C21.4081 15.9087 20.5057 15.5938 19.5312 15.5938Z" fill="#0095FF"/>
<path d="M23.1368 17.4362L16.9209 23.652C17.655 24.1851 18.5571 24.5 19.5316 24.5C21.9871 24.5 23.9847 22.5023 23.9847 20.0469C23.9847 19.0724 23.6698 18.17 23.1368 17.4362Z" fill="#0095FF"/>
<path d="M3.82812 11.8438C2.27484 11.8438 1.01562 13.103 1.01562 14.6562V17.4688H6.64062V14.6562C6.64062 13.103 5.38141 11.8438 3.82812 11.8438Z" fill="#0095FF"/>
<path d="M1.01562 18.875V21.6875C1.01562 23.2408 2.27484 24.5 3.82812 24.5C5.38141 24.5 6.64062 23.2408 6.64062 21.6875V18.875H1.01562Z" fill="#0095FF"/>
<path d="M13.6724 20.0469C13.6724 16.8109 16.2957 14.1875 19.5317 14.1875C19.7698 14.1875 20.0043 14.2021 20.2349 14.2296V11.0938H6.08594C7.26404 11.8428 8.04736 13.1597 8.04736 14.6562V21.6875C8.04736 22.7671 7.63959 23.7531 6.97015 24.5H15.7239C14.4683 23.4254 13.6724 21.8292 13.6724 20.0469ZM12.7349 16.25V16.9531C12.7349 17.3415 12.4201 17.6562 12.0317 17.6562C11.6434 17.6562 11.3286 17.3415 11.3286 16.9531V16.25H10.6255C10.2371 16.25 9.92236 15.9352 9.92236 15.5469C9.92236 15.1585 10.2371 14.8438 10.6255 14.8438H11.3286V14.1406C11.3286 13.7523 11.6434 13.4375 12.0317 13.4375C12.4201 13.4375 12.7349 13.7523 12.7349 14.1406V14.8438H13.438C13.8264 14.8438 14.1411 15.1585 14.1411 15.5469C14.1411 15.9352 13.8264 16.25 13.438 16.25H12.7349Z" fill="#0095FF"/>
<path d="M16.7189 6.59375H7.34393C5.54822 6.59375 4.06378 7.94727 3.85449 9.6875H20.2084C19.9991 7.94727 18.5146 6.59375 16.7189 6.59375Z" fill="#0095FF"/>
</g>
<defs>
<clipPath id="clip0_465_778">
<rect width="24" height="24" fill="white" transform="translate(0.5 0.5)"/>
</clipPath>
</defs>
</svg>
