<svg width="24" height="24" viewBox="0 0 24 24" fill="none" xmlns="http://www.w3.org/2000/svg">
<path d="M12.8277 16.8091C12.3705 16.8091 12 17.2091 12 17.7027C12 18.1963 12.3705 18.5965 12.8277 18.5965H19.1724C19.6295 18.5965 20.0001 18.1966 20.0001 17.7027C20.0001 17.2092 19.6296 16.8091 19.1724 16.8091H12.8277Z" fill="white"/>
<path d="M4 8.76617C4 9.2598 4.37052 9.65978 4.82767 9.65978H7.0346V12.043C7.0346 12.5365 7.40501 12.9367 7.86216 12.9367C8.31931 12.9367 8.68983 12.5367 8.68983 12.043V9.65978H11.1726C11.6298 9.65978 12.0002 9.2598 12.0002 8.76617C12.0002 8.27253 11.6298 7.87243 11.1726 7.87243H8.68972V4.89361C8.68972 4.39997 8.3192 4 7.86205 4C7.4049 4 7.03449 4.39997 7.03449 4.89361V7.87243H4.82756C4.37052 7.87256 4 8.27265 4 8.76617Z" fill="white"/>
<path d="M18.8831 5.47216C18.5599 5.12305 18.036 5.12305 17.7127 5.47216L5.67199 18.4744C5.34892 18.8234 5.34892 19.3891 5.67199 19.738C5.83336 19.9127 6.04546 20 6.2571 20C6.46863 20 6.68085 19.9127 6.84244 19.738L18.8831 6.73627C19.2064 6.38741 19.2064 5.82102 18.8831 5.47216Z" fill="white"/>
</svg>
