<svg width="25" height="25" viewBox="0 0 25 25" fill="none" xmlns="http://www.w3.org/2000/svg">
<g clip-path="url(#clip0_465_712)">
<path d="M11.7357 17.9908C12.0266 17.8817 12.2448 17.809 12.3539 17.7726L9.263 23.9181C9.15391 24.1362 8.93572 24.0999 8.89936 24.0999C8.75391 24.0635 8.60845 23.9544 8.57209 23.809L8.20845 22.0272L6.57209 22.7908C6.42663 22.8635 6.28118 22.8272 6.17209 22.7181C6.063 22.609 6.02663 22.4272 6.09936 22.3181L8.49936 17.5181C9.48118 18.609 10.5357 18.4635 11.7357 17.9908Z" fill="white"/>
<path d="M18.8263 22.7544C18.7173 22.8635 18.5354 22.8999 18.4263 22.8272L16.79 22.0635L16.4263 23.8454C16.3536 24.1363 16.0991 24.1363 16.0627 24.1363C15.9173 24.1363 15.8082 24.0635 15.7354 23.9544L12.6445 17.809C12.79 17.8454 12.9718 17.9181 13.2627 18.0272C14.4991 18.4999 15.5536 18.609 16.4627 17.5544L18.8627 22.3908C18.9718 22.4999 18.9354 22.6454 18.8263 22.7544Z" fill="white"/>
<path d="M20.4632 7.66361C19.845 6.89997 19.8086 6.79088 19.845 5.80906C19.9177 4.20906 19.6268 3.73633 18.0268 3.33633C17.045 3.08179 16.9723 3.00906 16.4268 2.1727C15.4813 0.754516 14.9723 0.645425 13.5177 1.19088C12.5723 1.55452 12.4268 1.55452 11.4813 1.19088C10.0268 0.645425 9.48135 0.754516 8.57226 2.1727C8.0268 2.9727 7.95407 3.08179 6.97225 3.33633C5.33589 3.7727 5.08135 4.28179 5.15407 5.80906C5.19044 6.82724 5.15407 6.93633 4.57225 7.66361C3.55407 8.93633 3.51771 9.51815 4.57225 10.8272C5.19044 11.5909 5.2268 11.6636 5.15407 12.7182C5.08135 14.2818 5.37225 14.7909 6.97225 15.2272C7.95407 15.4818 8.0268 15.5909 8.57226 16.3909C8.71771 16.6091 8.86316 16.8636 9.04498 17.0454C9.84498 17.9909 10.7541 17.6272 11.4813 17.3727C12.4268 17.0091 12.6086 17.0091 13.5541 17.3727C14.4995 17.7363 15.2632 17.9182 15.9904 17.0454C17.0086 15.8818 16.5359 15.6636 18.0632 15.2272C19.6995 14.7909 19.9541 14.3182 19.8813 12.7182C19.845 11.7 19.8813 11.6272 20.4995 10.8636C21.5177 9.51815 21.4813 8.93633 20.4632 7.66361ZM12.4995 14.5C9.59044 14.5 7.2268 12.1363 7.2268 9.22724C7.2268 6.31815 9.59044 3.99088 12.4995 3.99088C15.4086 3.99088 17.7723 6.35452 17.7723 9.26361C17.7723 12.1727 15.4086 14.5 12.4995 14.5Z" fill="white"/>
<path d="M12.4996 4.71826C9.99047 4.71826 7.9541 6.75463 7.9541 9.26372C7.9541 11.7728 9.99047 13.7728 12.4996 13.7728C15.0086 13.7728 17.045 11.7364 17.045 9.22735C17.045 6.71826 15.0086 4.71826 12.4996 4.71826ZM15.7723 8.24553C15.845 8.42735 15.7723 8.60917 15.6268 8.71826L14.0996 9.80917L14.6814 11.591C14.7541 11.7728 14.6814 11.9546 14.5359 12.0637C14.3905 12.1728 14.1723 12.1728 14.0268 12.0637L12.4996 10.9728L10.9723 12.0637C10.8268 12.1728 10.645 12.1728 10.4996 12.0637C10.3541 11.9546 10.2814 11.7728 10.3177 11.591L10.8996 9.80917L9.37228 8.71826C9.22683 8.60917 9.1541 8.42735 9.22683 8.24553C9.29956 8.06372 9.44501 7.95463 9.62683 7.95463H11.5177L12.0996 6.17281C12.1723 5.99099 12.3177 5.8819 12.4996 5.8819C12.6814 5.8819 12.8268 5.99099 12.8996 6.17281L13.4814 7.95463H15.3723C15.5541 7.95463 15.6996 8.10008 15.7723 8.24553Z" fill="white"/>
</g>
<defs>
<clipPath id="clip0_465_712">
<rect width="24" height="24" fill="white" transform="translate(0.5 0.5)"/>
</clipPath>
</defs>
</svg>
