<svg width="25" height="25" viewBox="0 0 25 25" fill="none" xmlns="http://www.w3.org/2000/svg">
<path d="M5.78952 8.57357C5.34965 8.31645 4.84943 8.18063 4.33992 8.17997V6.73997C4.33992 6.10345 4.59278 5.493 5.04287 5.04291C5.49295 4.59282 6.1034 4.33997 6.73992 4.33997H18.2599C18.8964 4.33997 19.5069 4.59282 19.957 5.04291C20.4071 5.493 20.6599 6.10345 20.6599 6.73997V8.17997C20.1532 8.17859 19.6555 8.31462 19.2199 8.57357C18.7832 8.82568 18.4204 9.18802 18.1677 9.62436C17.915 10.0607 17.7813 10.5557 17.7799 11.06V12.98H7.21992V11.06C7.21954 10.5567 7.08727 10.0623 6.8363 9.62601C6.58533 9.18976 6.22441 8.82689 5.78952 8.57357ZM5.77992 19.7H3.85992C3.73262 19.7 3.61053 19.7505 3.52051 19.8406C3.43049 19.9306 3.37992 20.0527 3.37992 20.18C3.37992 20.3073 3.43049 20.4294 3.52051 20.5194C3.61053 20.6094 3.73262 20.66 3.85992 20.66H5.77992C5.90723 20.66 6.02932 20.6094 6.11933 20.5194C6.20935 20.4294 6.25992 20.3073 6.25992 20.18C6.25992 20.0527 6.20935 19.9306 6.11933 19.8406C6.02932 19.7505 5.90723 19.7 5.77992 19.7ZM21.1399 19.7H19.2199C19.0926 19.7 18.9705 19.7505 18.8805 19.8406C18.7905 19.9306 18.7399 20.0527 18.7399 20.18C18.7399 20.3073 18.7905 20.4294 18.8805 20.5194C18.9705 20.6094 19.0926 20.66 19.2199 20.66H21.1399C21.2672 20.66 21.3893 20.6094 21.4793 20.5194C21.5694 20.4294 21.6199 20.3073 21.6199 20.18C21.6199 20.0527 21.5694 19.9306 21.4793 19.8406C21.3893 19.7505 21.2672 19.7 21.1399 19.7ZM20.6599 9.13997C20.1507 9.13997 19.6623 9.34225 19.3023 9.70232C18.9422 10.0624 18.7399 10.5508 18.7399 11.06V13.94H6.25992V11.06C6.25992 10.5508 6.05764 10.0624 5.69757 9.70232C5.3375 9.34225 4.84914 9.13997 4.33992 9.13997C3.83071 9.13997 3.34235 9.34225 2.98228 9.70232C2.62221 10.0624 2.41992 10.5508 2.41992 11.06V17.3C2.41992 17.6819 2.57164 18.0481 2.84169 18.3182C3.11174 18.5883 3.47801 18.74 3.85992 18.74H21.1399C21.5218 18.74 21.8881 18.5883 22.1582 18.3182C22.4282 18.0481 22.5799 17.6819 22.5799 17.3V11.06C22.5799 10.5508 22.3776 10.0624 22.0176 9.70232C21.6575 9.34225 21.1691 9.13997 20.6599 9.13997Z" fill="#0095FF"/>
</svg>
