<svg width="25" height="25" viewBox="0 0 25 25" fill="none" xmlns="http://www.w3.org/2000/svg">
<g clip-path="url(#clip0_465_695)">
<path d="M8.75 9.40625C8.36169 9.40625 8.04688 9.72106 8.04688 10.1094V11.5156C8.04688 11.9039 8.36169 12.2188 8.75 12.2188C9.13831 12.2188 9.45312 11.9039 9.45312 11.5156V10.1094C9.45312 9.72106 9.13831 9.40625 8.75 9.40625Z" fill="white"/>
<path d="M11.5625 8C11.1742 8 10.8594 8.31481 10.8594 8.70312V11.5156C10.8594 11.9039 11.1742 12.2188 11.5625 12.2188C11.9508 12.2188 12.2656 11.9039 12.2656 11.5156V8.70312C12.2656 8.31481 11.9508 8 11.5625 8Z" fill="white"/>
<path d="M14.375 6.59375C13.9867 6.59375 13.6719 6.90856 13.6719 7.29688V11.5156C13.6719 11.9039 13.9867 12.2188 14.375 12.2188C14.7633 12.2188 15.0781 11.9039 15.0781 11.5156V7.29688C15.0781 6.90856 14.7633 6.59375 14.375 6.59375Z" fill="white"/>
<path d="M17.1875 8C16.7992 8 16.4844 8.31481 16.4844 8.70312V11.5156C16.4844 11.9039 16.7992 12.2188 17.1875 12.2188C17.5758 12.2188 17.8906 11.9039 17.8906 11.5156V8.70312C17.8906 8.31481 17.5758 8 17.1875 8Z" fill="white"/>
<path d="M20 7.0625C19.6117 7.0625 19.2969 7.37731 19.2969 7.76562V11.5156C19.2969 11.9039 19.6117 12.2188 20 12.2188C20.3883 12.2188 20.7031 11.9039 20.7031 11.5156V7.76562C20.7031 7.37731 20.3883 7.0625 20 7.0625Z" fill="white"/>
<path d="M22.8125 6.125C22.4242 6.125 22.1094 6.43981 22.1094 6.82812V11.5156C22.1094 11.9039 22.4242 12.2188 22.8125 12.2188C23.2008 12.2188 23.5156 11.9039 23.5156 11.5156V6.82812C23.5156 6.43981 23.2008 6.125 22.8125 6.125Z" fill="white"/>
<path d="M23.8721 0.999196L21.1023 0.510805C20.7199 0.443352 20.3552 0.698727 20.2878 1.08113C20.2203 1.46354 20.4757 1.82823 20.8581 1.89568L21.9435 2.08707L17.7387 4.99815L15.8099 3.06934C15.5879 2.84734 15.2456 2.79943 14.9712 2.95187L6.53367 7.63946C6.1942 7.82804 6.0719 8.2561 6.26048 8.59557C6.44906 8.93504 6.87712 9.05734 7.21659 8.86876L15.1905 4.43879L17.1592 6.40749C17.3995 6.64777 17.7772 6.68185 18.0566 6.4884L22.765 3.22876L22.5692 4.33937C22.5018 4.72177 22.7571 5.08646 23.1395 5.15391C23.5219 5.22137 23.8866 4.96599 23.9541 4.58359L24.4425 1.81379C24.5099 1.43134 24.2546 1.06665 23.8721 0.999196Z" fill="white"/>
<path d="M7.12273 14.5039L0.898438 18.0975C0.680891 18.2231 0.546875 18.4553 0.546875 18.7065V23.797C0.546875 24.1853 0.861687 24.5002 1.25 24.5002H5C5.17831 24.5002 5.34997 24.4324 5.48023 24.3106L7.62027 22.3097L14.4691 22.3322C15.4225 22.3365 16.3629 22.0868 17.1885 21.6101L23.5742 17.9234C24.1181 17.6094 24.4531 17.0291 24.4531 16.401C24.4531 15.0479 22.9882 14.2021 21.8163 14.8787C20.9376 15.386 20.0686 15.8878 19.294 16.335C19.3049 16.5646 19.2918 16.7987 19.2503 17.0344C19.1038 17.8669 18.6418 18.5925 17.9494 19.0775C17.257 19.5625 16.4172 19.7488 15.5847 19.602L10.8558 18.7681C10.4734 18.7007 10.218 18.336 10.2854 17.9536C10.3529 17.5712 10.7175 17.3158 11.1 17.3833L15.8289 18.2171C16.7852 18.3857 17.697 17.747 17.8653 16.7907C18.0335 15.8348 17.3952 14.9234 16.4394 14.7549L11.0698 13.8079C9.71548 13.5691 8.31369 13.8163 7.12273 14.5039Z" fill="white"/>
</g>
<defs>
<clipPath id="clip0_465_695">
<rect width="24" height="24" fill="white" transform="translate(0.5 0.5)"/>
</clipPath>
</defs>
</svg>
