<svg width="1102" height="392" viewBox="0 0 1102 392" fill="none" xmlns="http://www.w3.org/2000/svg">
<path d="M0 67.0598C32.067 58.6508 75.4936 69.6522 83.2486 147.413C91.0036 225.174 34.5607 310.61 83.2486 345.261C131.937 379.912 234.222 317.741 234.222 317.741C234.222 317.741 503.727 189.656 619.123 101.584M1100 382.787C1100 382.787 985.127 405.805 941.863 317.741C898.599 229.678 892.134 69.5621 763.336 189.649C692.741 255.47 635.939 170.033 619.123 101.584M619.123 101.584C619.123 101.584 668.265 69.3646 683.68 37.842C699.096 6.31929 672.83 19.5243 647.966 35.0364C616.254 -31.5331 610.669 35.0364 614.15 66.559C617.631 98.0816 613.813 63.0562 619.123 101.584ZM619.123 101.584C621.982 112.092 616.537 103.67 619.123 101.584Z" stroke="#33B577" stroke-width="12"/>
</svg>
