<svg width="425" height="309" viewBox="0 0 425 309" fill="none" xmlns="http://www.w3.org/2000/svg">
<path d="M12.2069 278.984C12.2069 278.984 50.9991 349.9 69.9991 237.179C77.6097 192.028 69.0956 167.904 56.1535 155.207C34.3858 133.851 7.5 164.459 7.5 194.953V200.753C7.5 227.268 25.964 249.211 52.4354 247.701C63.4634 247.072 74.9659 245.98 85.8286 244.732C110.799 241.863 129.956 206.356 149.367 190.388V190.388C176.414 168.138 202.19 160.659 219.295 160.659C236.399 160.659 260.851 160.399 266.08 190.106C271.31 219.814 248.135 232.351 233.381 229.083C218.627 225.814 206.209 217.64 200.178 196.05C194.147 174.461 192.026 152.165 204.706 110.639C217.386 69.1129 233.987 41.6957 236.399 37.9684C238.811 34.2412 258.499 -2.02479 296.457 10.6916C334.415 23.4081 342.014 62.5015 346.752 81.3413C351.49 100.181 353.394 110.639 361.162 129.986C366.29 142.76 373.341 148.741 379.825 151.371C390.498 155.702 402.771 152.165 414.289 152.165H424.5" stroke="#3EEBB6" stroke-width="15"/>
</svg>
